<svg aria-hidden="true" style="position: absolute; width: 0; height: 0; overflow: hidden;" version="1.1" xmlns="http://www.w3.org/2000/svg" xmlns:xlink="http://www.w3.org/1999/xlink">
<defs>
<symbol id="logo" viewBox="0 0 97 32">
<path d="M15.794 27.627c-6.329 0-11.46-5.131-11.46-11.46h-4.001c0 8.539 6.922 15.461 15.461 15.461s15.461-6.922 15.461-15.461h-4.001c0 6.329-5.131 11.46-11.46 11.46z"></path>
<path d="M17.539 4.802c6.329 0 11.46 5.131 11.46 11.46h4.001c0-8.539-6.922-15.461-15.461-15.461s-15.461 6.922-15.461 15.461h4.001c0-6.329 5.131-11.46 11.46-11.46z"></path>
<path d="M51.333 11v10h-2.687v-7.38h-4.626v7.38h-2.687v-10h10z"></path>
<path d="M56.289 13.62h-3.622v-2.62h10v2.62h-3.68v7.38h-2.698v-7.38z"></path>
<path d="M68.716 18.642c1.484 0 2.513-1.057 2.513-2.642 0-1.566-1.029-2.642-2.513-2.642-1.543 0-2.612 1.076-2.612 2.642 0 1.567 1.069 2.642 2.612 2.642zM71.546 20.717l-0.297-1.396c-0.792 1.057-1.979 1.679-3.364 1.679-2.593 0-4.552-2.132-4.552-4.981 0-2.887 1.939-5.019 4.552-5.019 1.385 0 2.572 0.622 3.364 1.679l0.297-1.396h2.454v9.434h-2.454z"></path>
<path d="M86 21h-3.21l-2.114-2.86-2.093 2.86h-3.249l3.738-5.060-3.641-4.94h3.23l2.015 2.74 2.017-2.74h3.229l-3.621 4.94 3.699 5.060z"></path>
<path d="M94.692 21v-5.78l-5.132 5.78h-2.227v-10h2.642v5.74l5.17-5.74h2.188v10h-2.641z"></path>
</symbol>
<symbol id="facebook" viewBox="0 0 17 32">
<path d="M10.263 16.373h4.756l0.747-4.861h-5.504v-2.656c0-2.019 0.655-3.81 2.533-3.81h3.017v-4.242c-0.53-0.072-1.651-0.23-3.769-0.23-4.424 0-7.017 2.35-7.017 7.705v3.233h-4.547v4.861h4.547v13.361c0.901 0.136 1.812 0.229 2.749 0.229 0.846 0 1.672-0.078 2.488-0.189v-13.401z"></path>
</symbol>
<symbol id="telegram" viewBox="0 0 36 32">
<path d="M33.611 1.858l-5.013 26.171c0 0-0.702 1.815-2.628 0.944l-11.567-9.184-0.053-0.027c1.562-1.452 13.678-12.733 14.207-13.245 0.82-0.792 0.311-1.263-0.641-0.665l-17.896 11.769-6.905-2.406c0 0-1.087-0.401-1.191-1.27-0.106-0.872 1.227-1.343 1.227-1.343l28.146-11.435c0 0 2.314-1.053 2.314 0.69l-0.001 0.001z"></path>
</symbol>
<symbol id="instagram" viewBox="0 0 32 32">
<path d="M15.632 4.763c3.847 0 4.371 0 5.945 0 1.399 0 2.098 0.35 2.623 0.525 0.699 0.35 1.224 0.525 1.749 1.050s0.874 1.050 1.050 1.749c0.175 0.525 0.349 1.224 0.525 2.623 0 1.573 0 1.924 0 5.945s0 4.372 0 5.945c0 1.399-0.349 2.098-0.525 2.623-0.35 0.699-0.525 1.224-1.050 1.749s-1.049 0.874-1.749 1.050c-0.525 0.175-1.224 0.35-2.623 0.525-1.573 0-1.924 0-5.945 0s-4.371 0-5.945 0c-1.399 0-2.098-0.35-2.623-0.525-0.699-0.35-1.224-0.525-1.749-1.050s-0.874-1.049-1.050-1.749c-0.175-0.525-0.35-1.224-0.525-2.623 0-1.573 0-1.924 0-5.945s0-4.371 0-5.945c0-1.399 0.35-2.098 0.525-2.623 0.35-0.699 0.525-1.224 1.050-1.749s1.050-0.874 1.749-1.050c0.525-0.175 1.224-0.35 2.623-0.525 1.573 0 2.098 0 5.945 0zM15.632 2.14c-4.022 0-4.371 0-5.945 0s-2.623 0.35-3.497 0.699c-0.874 0.35-1.749 0.874-2.623 1.749s-1.224 1.573-1.749 2.623c-0.35 0.874-0.525 1.923-0.699 3.497 0 1.573 0 2.098 0 5.945 0 4.022 0 4.372 0 5.945s0.35 2.623 0.699 3.497c0.35 0.874 0.874 1.749 1.749 2.623s1.573 1.224 2.623 1.749c0.874 0.35 1.923 0.525 3.497 0.699 1.573 0 2.098 0 5.945 0s4.372 0 5.945 0 2.623-0.35 3.497-0.699c0.874-0.35 1.749-0.874 2.623-1.749s1.224-1.573 1.749-2.623c0.35-0.874 0.525-1.924 0.699-3.497 0-1.573 0-2.098 0-5.945s0-4.371 0-5.945-0.35-2.623-0.699-3.497c-0.35-0.874-0.874-1.749-1.749-2.623s-1.573-1.224-2.623-1.749c-0.874-0.35-1.924-0.525-3.497-0.699-1.573 0-1.924 0-5.945 0z"></path>
<path d="M15.632 9.134c-4.196 0-7.518 3.322-7.518 7.518s3.322 7.518 7.518 7.518c4.196 0 7.518-3.322 7.518-7.518s-3.322-7.518-7.518-7.518zM15.632 21.549c-2.623 0-4.896-2.098-4.896-4.896 0-2.623 2.098-4.896 4.896-4.896 2.623 0 4.896 2.098 4.896 4.896 0 2.623-2.273 4.896-4.896 4.896z"></path>
<path d="M23.326 10.708c0.966 0 1.749-0.783 1.749-1.749s-0.783-1.749-1.749-1.749c-0.966 0-1.749 0.783-1.749 1.749s0.783 1.749 1.749 1.749z"></path>
</symbol>
</defs>
</svg>
